<svg width="640" height="240" viewBox="0 0 640 240" xmlns="http://www.w3.org/2000/svg" role="img" aria-labelledby="title desc">
  <title id="title">AI Hub Logo</title>
  <desc id="desc">AI Hub brand mark with gradient ring, network nodes, and wordmark.</desc>
  <defs>
    <linearGradient id="ringGrad" x1="0" y1="0" x2="1" y2="1">
      <stop offset="0%" stop-color="#4EDCFF"/>
      <stop offset="100%" stop-color="#41E6B0"/>
    </linearGradient>
    <linearGradient id="wordGrad" x1="0" y1="0" x2="1" y2="0">
      <stop offset="0%" stop-color="#EAF4FF"/>
      <stop offset="100%" stop-color="#CFE6FF"/>
    </linearGradient>
    <filter id="softGlow" x="-50%" y="-50%" width="200%" height="200%">
      <feGaussianBlur stdDeviation="6" result="b"/>
      <feMerge>
        <feMergeNode in="b"/>
        <feMergeNode in="SourceGraphic"/>
      </feMerge>
    </filter>
  </defs>

  <rect x="0" y="0" width="640" height="240" rx="20" fill="#07182B"/>
  <rect x="8" y="8" width="624" height="224" rx="14" fill="#0B223D" stroke="#173A61"/>

  <g transform="translate(62,35)">
    <circle cx="85" cy="85" r="72" fill="none" stroke="url(#ringGrad)" stroke-width="16" filter="url(#softGlow)"/>
    <circle cx="85" cy="85" r="34" fill="#0A2644" stroke="#5BD2FF" stroke-opacity="0.7"/>

    <path d="M85 25 L120 60" stroke="#8FE8FF" stroke-width="5" stroke-linecap="round"/>
    <path d="M50 60 L85 85" stroke="#8FE8FF" stroke-width="5" stroke-linecap="round"/>
    <path d="M85 85 L125 115" stroke="#8FE8FF" stroke-width="5" stroke-linecap="round"/>
    <path d="M55 120 L85 85" stroke="#8FE8FF" stroke-width="5" stroke-linecap="round"/>

    <circle cx="120" cy="60" r="9" fill="#41E6B0"/>
    <circle cx="50" cy="60" r="9" fill="#4EDCFF"/>
    <circle cx="125" cy="115" r="9" fill="#4EDCFF"/>
    <circle cx="55" cy="120" r="9" fill="#41E6B0"/>
    <circle cx="85" cy="85" r="10" fill="#9CF3D3"/>
  </g>

  <g transform="translate(230,72)">
    <text x="0" y="62" font-size="72" font-family="Sora, Segoe UI, Arial, sans-serif" font-weight="700" fill="url(#wordGrad)">AI Hub</text>
    <text x="3" y="98" font-size="20" font-family="Inter, Segoe UI, Arial, sans-serif" font-weight="500" fill="#9BC1E8">Unified chat, session, and tooling control plane</text>
  </g>
</svg>
